<svg xmlns="http://www.w3.org/2000/svg" viewBox="0 0 200 200" width="200" height="200">
  <!-- Background circle -->
  <circle cx="100" cy="100" r="90" fill="none" stroke="url(#gradientStroke)" stroke-width="2" opacity="0.3"/>
  
  <!-- Define gradients -->
  <defs>
    <linearGradient id="gradientStroke" x1="0%" y1="0%" x2="100%" y2="100%">
      <stop offset="0%" style="stop-color:#6b46c1;stop-opacity:1" />
      <stop offset="100%" style="stop-color:#7c3aed;stop-opacity:1" />
    </linearGradient>
    
    <linearGradient id="neuronGradient" x1="0%" y1="0%" x2="100%" y2="100%">
      <stop offset="0%" style="stop-color:#4a4e69;stop-opacity:1" />
      <stop offset="100%" style="stop-color:#6b46c1;stop-opacity:1" />
    </linearGradient>
    
    <linearGradient id="connectionGradient" x1="0%" y1="0%" x2="100%" y2="100%">
      <stop offset="0%" style="stop-color:#e2e8f0;stop-opacity:0.8" />
      <stop offset="100%" style="stop-color:#6b46c1;stop-opacity:0.6" />
    </linearGradient>
  </defs>
  
  <!-- Neural network connections -->
  <g stroke="url(#connectionGradient)" stroke-width="1.5" opacity="0.7">
    <!-- Input layer to hidden layer -->
    <line x1="40" y1="60" x2="80" y2="80" />
    <line x1="40" y1="100" x2="80" y2="80" />
    <line x1="40" y1="140" x2="80" y2="80" />
    
    <line x1="40" y1="60" x2="80" y2="120" />
    <line x1="40" y1="100" x2="80" y2="120" />
    <line x1="40" y1="140" x2="80" y2="120" />
    
    <!-- Hidden layer to output layer -->
    <line x1="80" y1="80" x2="120" y2="100" />
    <line x1="80" y1="120" x2="120" y2="100" />
    
    <!-- Brain-like curved connections -->
    <path d="M 120 100 Q 140 80 160 100" stroke="url(#connectionGradient)" stroke-width="2" fill="none" opacity="0.5"/>
    <path d="M 120 100 Q 140 120 160 100" stroke="url(#connectionGradient)" stroke-width="2" fill="none" opacity="0.5"/>
    <path d="M 160 100 Q 180 80 160 60" stroke="url(#connectionGradient)" stroke-width="1.5" fill="none" opacity="0.4"/>
    <path d="M 160 100 Q 180 120 160 140" stroke="url(#connectionGradient)" stroke-width="1.5" fill="none" opacity="0.4"/>
  </g>
  
  <!-- Input layer neurons -->
  <g>
    <circle cx="40" cy="60" r="8" fill="url(#neuronGradient)" stroke="#e2e8f0" stroke-width="1"/>
    <circle cx="40" cy="100" r="8" fill="url(#neuronGradient)" stroke="#e2e8f0" stroke-width="1"/>
    <circle cx="40" cy="140" r="8" fill="url(#neuronGradient)" stroke="#e2e8f0" stroke-width="1"/>
  </g>
  
  <!-- Hidden layer neurons -->
  <g>
    <circle cx="80" cy="80" r="10" fill="url(#neuronGradient)" stroke="#e2e8f0" stroke-width="1"/>
    <circle cx="80" cy="120" r="10" fill="url(#neuronGradient)" stroke="#e2e8f0" stroke-width="1"/>
  </g>
  
  <!-- Output layer neuron (brain center) -->
  <circle cx="120" cy="100" r="12" fill="url(#neuronGradient)" stroke="#ffffff" stroke-width="2"/>
  
  <!-- Brain-like organic shapes -->
  <g fill="url(#neuronGradient)" opacity="0.6">
    <!-- Upper brain lobe -->
    <path d="M 160 100 Q 170 80 180 90 Q 185 85 180 95 Q 175 100 160 100" />
    <!-- Lower brain lobe -->
    <path d="M 160 100 Q 170 120 180 110 Q 185 115 180 105 Q 175 100 160 100" />
    <!-- Small neural clusters -->
    <circle cx="160" cy="60" r="6" opacity="0.5"/>
    <circle cx="160" cy="140" r="6" opacity="0.5"/>
    <circle cx="140" cy="70" r="4" opacity="0.4"/>
    <circle cx="140" cy="130" r="4" opacity="0.4"/>
  </g>
  
  <!-- Synaptic sparks/signals -->
  <g>
    <circle cx="50" cy="80" r="2" fill="#7c3aed" opacity="0.8">
      <animate attributeName="opacity" values="0.8;0.2;0.8" dur="2s" repeatCount="indefinite"/>
    </circle>
    <circle cx="90" cy="100" r="2" fill="#7c3aed" opacity="0.6">
      <animate attributeName="opacity" values="0.6;0.1;0.6" dur="1.5s" repeatCount="indefinite"/>
    </circle>
    <circle cx="130" cy="90" r="2" fill="#7c3aed" opacity="0.7">
      <animate attributeName="opacity" values="0.7;0.2;0.7" dur="1.8s" repeatCount="indefinite"/>
    </circle>
  </g>
  
  <!-- Central pulse in main neuron -->
  <circle cx="120" cy="100" r="8" fill="none" stroke="#ffffff" stroke-width="1" opacity="0.8">
    <animate attributeName="r" values="8;12;8" dur="2s" repeatCount="indefinite"/>
    <animate attributeName="opacity" values="0.8;0.3;0.8" dur="2s" repeatCount="indefinite"/>
  </circle>
</svg>